<svg width="10" height="12" viewBox="0 0 10 12" fill="none" xmlns="http://www.w3.org/2000/svg">
<path d="M4.66667 12.0023C3.82463 11.2841 3.04413 10.4967 2.33333 9.64834C1.26667 8.37434 5.85929e-07 6.47701 5.85929e-07 4.66901C-0.000462013 3.74565 0.273006 2.8429 0.785796 2.07502C1.29859 1.30714 2.02765 0.708646 2.88071 0.355272C3.73378 0.00189781 4.6725 -0.0904666 5.57808 0.0898678C6.48366 0.270202 7.31538 0.715129 7.968 1.36834C8.4025 1.80091 8.7469 2.31536 8.98126 2.88192C9.21562 3.44848 9.33529 4.05589 9.33333 4.66901C9.33333 6.47701 8.06667 8.37434 7 9.64834C6.2892 10.4967 5.50871 11.2841 4.66667 12.0023ZM4.66667 2.66901C4.13623 2.66901 3.62753 2.87972 3.25245 3.25479C2.87738 3.62987 2.66667 4.13857 2.66667 4.66901C2.66667 5.19944 2.87738 5.70815 3.25245 6.08322C3.62753 6.45829 4.13623 6.66901 4.66667 6.66901C5.1971 6.66901 5.70581 6.45829 6.08088 6.08322C6.45595 5.70815 6.66667 5.19944 6.66667 4.66901C6.66667 4.13857 6.45595 3.62987 6.08088 3.25479C5.70581 2.87972 5.1971 2.66901 4.66667 2.66901Z" fill="#F0E714"/>
</svg>
